# xmcd
#
# Track frame offsets:
#	150
#	14697
#	29027
#	40752
#	53217
#	67177
#	96917
#	133565
#	149772
#	164650
#
# Disc length: 2428 seconds
#
# Revision: 1
# Processed by: cddbd v1.5.1PL0 Copyright (c) Steve Scherf et al.
# Submitted via: audiograbber 1.83.01
#
DISCID=9d097a0a
DTITLE=Lee, Laura - Women's Love Rights
DYEAR=1971
DGENRE=Soul
TTITLE0=Women's Love Rights
TTITLE1=Wedlock Is A Padlock
TTITLE2=I Don't Want Nothing Old (But Money)
TTITLE3=(Don't Be Sorry) Be Careful If You Can't Be Good
TTITLE4=Love And Liberty
TTITLE5=It's Not What You Fall For, It's What You Stand For
TTITLE6=Since I Fell For You
TTITLE7=Two Lovely Pillows
TTITLE8=That's How Strong My Love Is
TTITLE9=Her Picture Matches Mine
EXTD=
EXTT0=
EXTT1=
EXTT2=
EXTT3=
EXTT4=
EXTT5=
EXTT6=
EXTT7=
EXTT8=
EXTT9=
PLAYORDER=
